<svg xmlns="http://www.w3.org/2000/svg" width="142.65" height="164.597" viewBox="0 0 142.65 164.597">
  <g id="chart" transform="translate(-0.5)">
    <path id="Caminho_16" data-name="Caminho 16" d="M126.216,104a2.743,2.743,0,0,0-2.743,2.743V120.46h-8.23A2.743,2.743,0,0,0,112.5,123.2v71.325a2.743,2.743,0,0,0,2.743,2.743h8.23v10.973a2.743,2.743,0,0,0,5.487,0V197.271h8.23a2.743,2.743,0,0,0,2.743-2.743V123.2a2.743,2.743,0,0,0-2.743-2.743h-8.23V106.743A2.743,2.743,0,0,0,126.216,104Zm8.23,21.946v65.839h-16.46V125.946Zm0,0" transform="translate(-73.594 -68.337)" fill="#90e909"/>
    <path id="Caminho_17" data-name="Caminho 17" d="M238.216,72a2.743,2.743,0,0,0-2.743,2.743V88.46h-8.23A2.743,2.743,0,0,0,224.5,91.2v71.325a2.743,2.743,0,0,0,2.743,2.743h8.23v10.973a2.743,2.743,0,1,0,5.487,0V165.271h8.23a2.743,2.743,0,0,0,2.743-2.743V91.2a2.743,2.743,0,0,0-2.743-2.743h-8.23V74.743A2.743,2.743,0,0,0,238.216,72Zm8.23,21.946v65.839h-16.46V93.946Zm0,0" transform="translate(-147.188 -47.31)" fill="#90e909"/>
    <path id="Caminho_18" data-name="Caminho 18" d="M350.216,168a2.743,2.743,0,0,0-2.743,2.743V184.46h-8.23A2.743,2.743,0,0,0,336.5,187.2v71.325a2.743,2.743,0,0,0,2.743,2.743h8.23v10.973a2.743,2.743,0,1,0,5.487,0V261.271h8.23a2.743,2.743,0,0,0,2.743-2.743V187.2a2.743,2.743,0,0,0-2.743-2.743h-8.23V170.743A2.743,2.743,0,0,0,350.216,168Zm8.23,21.946v65.839h-16.46V189.946Zm0,0" transform="translate(-220.782 -110.391)" fill="#90e909"/>
    <path id="Caminho_19" data-name="Caminho 19" d="M14.216,0a2.743,2.743,0,0,0-2.743,2.743V16.46H3.243A2.743,2.743,0,0,0,.5,19.2V90.528a2.743,2.743,0,0,0,2.743,2.743h8.23v10.973a2.743,2.743,0,1,0,5.487,0V93.271h8.23a2.743,2.743,0,0,0,2.743-2.743V19.2A2.743,2.743,0,0,0,25.19,16.46H16.96V2.743A2.743,2.743,0,0,0,14.216,0Zm8.23,21.946V87.785H5.987V21.946Zm0,0" fill="#90e909"/>
  </g>
</svg>
