<svg xmlns="http://www.w3.org/2000/svg" width="128.936" height="127.425" viewBox="0 0 128.936 127.425">
  <g id="money" transform="translate(0 -3)">
    <g id="Grupo_18" data-name="Grupo 18" transform="translate(75.537 66.763)">
      <g id="Grupo_17" data-name="Grupo 17">
        <path id="Caminho_2" data-name="Caminho 2" d="M310.531,274.372c-3.055,0-5.54-2.151-5.54-4.8s2.485-4.8,5.54-4.8,5.54,2.151,5.54,4.8a2.518,2.518,0,0,0,5.037,0,10.02,10.02,0,0,0-8.058-9.548v-1.31a2.518,2.518,0,1,0-5.037,0v1.31a10.02,10.02,0,0,0-8.058,9.548c0,5.421,4.745,9.832,10.577,9.832,3.055,0,5.54,2.151,5.54,4.8s-2.485,4.8-5.54,4.8-5.54-2.151-5.54-4.8a2.518,2.518,0,1,0-5.037,0,10.02,10.02,0,0,0,8.058,9.548v1.088a2.518,2.518,0,1,0,5.037,0v-1.088a10.02,10.02,0,0,0,8.058-9.548C321.107,278.783,316.363,274.372,310.531,274.372Z" transform="translate(-299.954 -256.201)" fill="#fff"/>
      </g>
    </g>
    <g id="Grupo_20" data-name="Grupo 20" transform="translate(96.683 57.844)">
      <g id="Grupo_19" data-name="Grupo 19" transform="translate(0 0)">
        <path id="Caminho_3" data-name="Caminho 3" d="M400.937,232.9a32.812,32.812,0,0,0-13.4-11.861,2.518,2.518,0,1,0-2.182,4.539,27.725,27.725,0,0,1,12.487,37.974,2.518,2.518,0,1,0,4.446,2.366,32.774,32.774,0,0,0-1.348-33.017Z" transform="translate(-383.924 -220.785)" fill="#fff"/>
      </g>
    </g>
    <g id="Grupo_22" data-name="Grupo 22" transform="translate(87.384 54.877)">
      <g id="Grupo_21" data-name="Grupo 21">
        <path id="Caminho_4" data-name="Caminho 4" d="M349.688,209h-.169a2.518,2.518,0,1,0,0,5.037h.158a2.518,2.518,0,0,0,.012-5.037Z" transform="translate(-347 -209.001)" fill="#fff"/>
      </g>
    </g>
    <g id="Grupo_24" data-name="Grupo 24" transform="translate(53.388 70.921)">
      <g id="Grupo_23" data-name="Grupo 23">
        <path id="Caminho_5" data-name="Caminho 5" d="M232.754,314.386a27.725,27.725,0,0,1-12.487-37.974,2.518,2.518,0,1,0-4.446-2.366,32.752,32.752,0,0,0,14.751,44.879,2.518,2.518,0,1,0,2.182-4.539Z" transform="translate(-212.002 -272.711)" fill="#fff"/>
      </g>
    </g>
    <g id="Grupo_26" data-name="Grupo 26" transform="translate(79.673 115.315)">
      <g id="Grupo_25" data-name="Grupo 25">
        <path id="Caminho_6" data-name="Caminho 6" d="M319.053,449h-.146a2.518,2.518,0,0,0-.023,5.037h.169a2.518,2.518,0,1,0,0-5.037Z" transform="translate(-316.378 -448.999)" fill="#fff"/>
      </g>
    </g>
    <g id="Grupo_28" data-name="Grupo 28" transform="translate(0 3)">
      <g id="Grupo_27" data-name="Grupo 27" transform="translate(0 0)">
        <path id="Caminho_7" data-name="Caminho 7" d="M97.56,46.357A11.559,11.559,0,0,0,96.441,44.3H103a11.584,11.584,0,0,0,0-23.168H82.831A11.576,11.576,0,0,0,73.282,3h-61.7a11.584,11.584,0,0,0,0,23.168H31.75a11.552,11.552,0,0,0,0,13.1H25.183a11.577,11.577,0,0,0-7.2,20.65,11.563,11.563,0,0,0,0,18.132,11.563,11.563,0,0,0,0,18.132,11.577,11.577,0,0,0,7.2,20.65H54.861a42.8,42.8,0,1,0,42.7-70.469ZM103,26.168a6.548,6.548,0,1,1,0,13.1H41.3a6.548,6.548,0,1,1,0-13.1ZM11.584,21.132a6.548,6.548,0,1,1,0-13.1h61.7a6.548,6.548,0,1,1,0,13.1ZM25.183,44.3h61.7a6.544,6.544,0,0,1,2.857.658c-1.191-.1-2.4-.154-3.612-.154A42.678,42.678,0,0,0,55.831,57.395H25.183a6.548,6.548,0,1,1,0-13.1Zm0,18.132H51.528a42.689,42.689,0,0,0-6.473,13.1H25.183a6.548,6.548,0,1,1,0-13.1Zm0,18.132H43.9a42.845,42.845,0,0,0-.155,13.1H25.183a6.548,6.548,0,1,1,0-13.1Zm0,31.227a6.548,6.548,0,1,1,0-13.1H44.771a42.642,42.642,0,0,0,6.042,13.1Zm60.942,13.6A37.774,37.774,0,1,1,123.9,87.614,37.817,37.817,0,0,1,86.125,125.388Z" transform="translate(0 -3)" fill="#fff"/>
      </g>
    </g>
  </g>
</svg>
