<svg xmlns="http://www.w3.org/2000/svg" width="145.197" height="127.548" viewBox="0 0 145.197 127.548">
  <g id="grafico-de-planilha" transform="translate(13.185 -33.202)">
    <g id="Grupo_79" data-name="Grupo 79">
      <path id="Caminho_38" data-name="Caminho 38" d="M61.56,73.523H94.478v7.766h4.388V73.523h33.768v7.766h4.387V33.9a5.124,5.124,0,0,0-5.117-5.119H5.119A5.125,5.125,0,0,0,0,33.9V146.061a5.11,5.11,0,0,0,2.193,4.189v.807H4.029a5.067,5.067,0,0,0,1.09.123H63.357v-4.513h-1.8v-13.9h1.8v-4.39h-1.8V113.97h1.8v-4.387h-1.8V94.367h1.8V89.981h-1.8V73.523ZM98.866,33.171H131.9a.735.735,0,0,1,.734.732V48.655H98.866Zm0,19.871h33.768V69.134H98.866ZM61.56,33.171H94.478V48.655H61.56Zm0,19.871H94.478V69.134H61.56ZM20.234,146.666H4.739a.717.717,0,0,1-.352-.609V132.77H20.235v13.9Zm0-18.287H4.387V113.97H20.235V128.38Zm0-18.8H4.387V94.37H20.235v15.213Zm0-19.6H4.387V73.523H20.235V89.981Zm0-20.846H4.387V53.042H20.235V69.134Zm36.937,77.532H24.622v-13.9H57.171v13.9Zm0-18.287H24.622V113.97H57.171V128.38Zm0-18.8H24.622V94.37H57.171v15.213Zm0-19.6H24.622V73.523H57.171V89.981Zm0-20.846H24.622V53.042H57.171V69.134Zm0-20.481H24.622V33.169H57.171V48.653Zm19.861,58.983a4.833,4.833,0,1,1,8.245,3.422l7.663,11.994a5.447,5.447,0,0,1,5.8,1.1l10.057-7.351a4.444,4.444,0,0,1-.352-1.738,4.489,4.489,0,1,1,8.723,1.429l10.541,6.593a6.259,6.259,0,1,1-1.327,1.613l-10.3-6.445a4.44,4.44,0,0,1-6.047.208l-10.074,7.362a5.518,5.518,0,1,1-8.765-1.649l-7.672-12.012a4.793,4.793,0,0,1-6.49-4.525ZM69.948,87.645v68.688H145.2V87.645Zm72.139,65.582H73.055V90.751h69.033v62.476h0Z" transform="translate(-13.185 4.417)" fill="#90e909"/>
    </g>
  </g>
</svg>
