<svg xmlns="http://www.w3.org/2000/svg" width="27.805" height="27.805" viewBox="0 0 27.805 27.805">
  <path id="Instagram_Icon" data-name="Instagram Icon" d="M8.184,27.805a8.177,8.177,0,0,1-5.83-2.186,8.064,8.064,0,0,1-2.355-6V8.128C0,3.252,3.252,0,8.128,0H19.677a7.983,7.983,0,0,1,5.886,2.3,8.036,8.036,0,0,1,2.242,5.83V19.677a8.025,8.025,0,0,1-2.3,5.942,8.278,8.278,0,0,1-5.886,2.186ZM4.093,4.037A5.584,5.584,0,0,0,2.579,8.128V19.621a5.63,5.63,0,0,0,1.514,4.148,5.79,5.79,0,0,0,4.092,1.458H19.621a5.8,5.8,0,0,0,4.093-1.458,5.476,5.476,0,0,0,1.625-4.092V8.128a5.78,5.78,0,0,0-1.514-4.035,5.584,5.584,0,0,0-4.092-1.514H8.184A5.7,5.7,0,0,0,4.093,4.037Zm2.97,9.807A6.839,6.839,0,1,1,13.9,20.683,6.853,6.853,0,0,1,7.063,13.844Zm2.459,0A4.381,4.381,0,1,0,13.9,9.462,4.4,4.4,0,0,0,9.522,13.844ZM19.6,6.552A1.707,1.707,0,1,1,21.309,8.26,1.707,1.707,0,0,1,19.6,6.552Z" fill="#fff"/>
</svg>
