<svg xmlns="http://www.w3.org/2000/svg" width="108.48" height="134.085" viewBox="0 0 108.48 134.085">
  <g id="place" transform="translate(-48.886)">
    <g id="Grupo_68" data-name="Grupo 68" transform="translate(48.886)">
      <g id="Grupo_67" data-name="Grupo 67">
        <path id="Caminho_45" data-name="Caminho 45" d="M147.634,23.313a54.139,54.139,0,0,0-89.012,0,54.147,54.147,0,0,0-6.3,49.888,42.643,42.643,0,0,0,7.859,12.976l39.382,46.258a4.685,4.685,0,0,0,7.138,0L146.068,86.19a42.685,42.685,0,0,0,7.858-12.958A54.157,54.157,0,0,0,147.634,23.313Zm-2.488,46.634a33.443,33.443,0,0,1-6.184,10.13.167.167,0,0,0-.022.025l-35.812,42.063L67.293,80.076A33.463,33.463,0,0,1,61.1,69.917a44.789,44.789,0,0,1,5.235-41.271,44.762,44.762,0,0,1,73.586,0A44.8,44.8,0,0,1,145.146,69.948Z" transform="translate(-48.886)" fill="#90e909"/>
      </g>
    </g>
    <g id="Grupo_70" data-name="Grupo 70" transform="translate(76.873 27.817)">
      <g id="Grupo_69" data-name="Grupo 69">
        <path id="Caminho_46" data-name="Caminho 46" d="M182.009,106.219a26.255,26.255,0,1,0,26.255,26.255A26.284,26.284,0,0,0,182.009,106.219Zm0,43.132a16.878,16.878,0,1,1,16.878-16.878A16.9,16.9,0,0,1,182.009,149.351Z" transform="translate(-155.754 -106.219)" fill="#90e909"/>
      </g>
    </g>
  </g>
</svg>
