<svg id="planilha" xmlns="http://www.w3.org/2000/svg" width="129.809" height="129.809" viewBox="0 0 129.809 129.809">
  <path id="Caminho_39" data-name="Caminho 39" d="M120.343,95.948H9.465A9.476,9.476,0,0,1,0,86.483V13.465A9.476,9.476,0,0,1,9.465,4h5.409a4.057,4.057,0,1,1,0,8.113H9.465a1.367,1.367,0,0,0-1.352,1.352V86.483a1.367,1.367,0,0,0,1.352,1.352H120.343a1.367,1.367,0,0,0,1.352-1.352V13.465a1.367,1.367,0,0,0-1.352-1.352h-5.409a4.057,4.057,0,0,1,0-8.113h5.409a9.476,9.476,0,0,1,9.465,9.465V86.483A9.476,9.476,0,0,1,120.343,95.948Z" transform="translate(0 17.635)" fill="#90e909"/>
  <path id="Caminho_40" data-name="Caminho 40" d="M125.752,24.113H4.057a4.057,4.057,0,1,1,0-8.113h121.7a4.057,4.057,0,0,1,0,8.113Z" transform="translate(0 70.539)" fill="#90e909"/>
  <path id="Caminho_41" data-name="Caminho 41" d="M47.211,43.836H12.055a4.054,4.054,0,0,1-2.867-6.923c5.657-5.652,6.847-13.819,6.858-13.9a4.057,4.057,0,0,1,8.043,1.076,36.369,36.369,0,0,1-4.019,11.64H39.12a37.375,37.375,0,0,1-4.035-11.612,4.058,4.058,0,0,1,8.037-1.125c.038.233,1.255,7.945,6.415,13.462a4.058,4.058,0,0,1-2.326,7.383Z" transform="translate(35.271 85.973)" fill="#90e909"/>
  <path id="Caminho_42" data-name="Caminho 42" d="M76.665,64.9H9.057A4.058,4.058,0,0,1,5,60.848V4.057A4.058,4.058,0,0,1,9.057,0H76.665a4.058,4.058,0,0,1,4.057,4.057V60.848A4.058,4.058,0,0,1,76.665,64.9ZM13.113,56.791h59.5V8.113h-59.5Z" transform="translate(22.043)" fill="#90e909"/>
  <path id="Caminho_43" data-name="Caminho 43" d="M13.057,64.9A4.058,4.058,0,0,1,9,60.848V4.057a4.057,4.057,0,0,1,8.113,0V60.848A4.058,4.058,0,0,1,13.057,64.9Z" transform="translate(39.678)" fill="#90e909"/>
  <path id="Caminho_44" data-name="Caminho 44" d="M76.665,13.363H9.057a4.057,4.057,0,1,1,0-8.113H76.665a4.057,4.057,0,1,1,0,8.113Z" transform="translate(22.043 23.146)" fill="#90e909"/>
</svg>
