<svg id="XMLID_1031_" xmlns="http://www.w3.org/2000/svg" width="173.305" height="173.305" viewBox="0 0 173.305 173.305">
  <g id="XMLID_971_" transform="translate(0 0)">
    <g id="XMLID_977_">
      <path id="XMLID_1030_" d="M154.814,33.15h5.355a3.383,3.383,0,1,0,0-6.765H147.315a3.383,3.383,0,0,0-3.383,3.383V42.622a3.383,3.383,0,1,0,6.765,0V38.9A79.888,79.888,0,1,1,86.653,6.765a81.092,81.092,0,0,1,9.746.588A3.383,3.383,0,0,0,97.215.637,87.883,87.883,0,0,0,86.653,0,86.653,86.653,0,0,0,25.38,147.925,86.652,86.652,0,0,0,154.814,33.15Z" transform="translate(0 0)" fill="#fff"/>
      <path id="XMLID_1029_" d="M79.823,94.214a3.384,3.384,0,0,0-4.668,1.049A64.59,64.59,0,1,0,95.373,75.087,3.383,3.383,0,0,0,98.98,80.81a57.849,57.849,0,1,1-10.1,89.876,58.216,58.216,0,0,1-8.011-71.8A3.384,3.384,0,0,0,79.823,94.214Z" transform="translate(-43.131 -43.132)" fill="#fff"/>
      <path id="XMLID_1028_" d="M379.552,253.1h4.171a3.383,3.383,0,0,0,0-6.765h-4.171a3.383,3.383,0,1,0,0,6.765Z" transform="translate(-248.924 -163.005)" fill="#fff"/>
      <path id="XMLID_1004_" d="M103.835,249.389a3.383,3.383,0,0,0,3.383,3.383h4.171a3.383,3.383,0,1,0,0-6.765h-4.171A3.383,3.383,0,0,0,103.835,249.389Z" transform="translate(-68.711 -162.791)" fill="#fff"/>
      <path id="XMLID_1001_" d="M253.1,111.389v-4.171a3.383,3.383,0,1,0-6.765,0v4.171a3.383,3.383,0,1,0,6.765,0Z" transform="translate(-163.005 -68.711)" fill="#fff"/>
      <path id="XMLID_1415_" d="M246.006,379.552v4.171a3.383,3.383,0,1,0,6.765,0v-4.171a3.383,3.383,0,1,0-6.765,0Z" transform="translate(-162.791 -248.924)" fill="#fff"/>
      <path id="XMLID_996_" d="M194.747,167.139a3.383,3.383,0,0,0-4.784,4.784l11.464,11.464a11.653,11.653,0,1,0,20.55,0l23.132-23.132a3.383,3.383,0,1,0-4.784-4.784L217.193,178.6a11.629,11.629,0,0,0-10.982,0Zm21.843,21.739a4.888,4.888,0,1,1-4.888-4.888A4.893,4.893,0,0,1,216.59,188.878Z" transform="translate(-125.05 -102.226)" fill="#fff"/>
      <path id="XMLID_980_" d="M123.952,123.952a3.381,3.381,0,1,0-2.392.991A3.4,3.4,0,0,0,123.952,123.952Z" transform="translate(-78.203 -78.203)" fill="#fff"/>
      <path id="XMLID_979_" d="M318.821,16.643a3.384,3.384,0,1,0-2.391-.991A3.4,3.4,0,0,0,318.821,16.643Z" transform="translate(-208.736 -6.537)" fill="#fff"/>
    </g>
  </g>
</svg>
