<svg xmlns="http://www.w3.org/2000/svg" width="106.037" height="144.597" viewBox="0 0 106.037 144.597">
  <g id="ereader" transform="translate(-68.267)">
    <g id="Grupo_31" data-name="Grupo 31" transform="translate(106.826 9.64)">
      <g id="Grupo_30" data-name="Grupo 30">
        <path id="Caminho_20" data-name="Caminho 20" d="M231.31,34.133h-24.1a2.41,2.41,0,1,0,0,4.82h24.1a2.41,2.41,0,1,0,0-4.82Z" transform="translate(-204.801 -34.133)" fill="#90e909"/>
      </g>
    </g>
    <g id="Grupo_33" data-name="Grupo 33" transform="translate(68.267)">
      <g id="Grupo_78" data-name="Grupo 78">
        <g id="Grupo_32" data-name="Grupo 32">
          <path id="Caminho_21" data-name="Caminho 21" d="M164.026,0H78.548A10.293,10.293,0,0,0,68.267,10.281V134.316A10.293,10.293,0,0,0,78.548,144.6h85.476A10.293,10.293,0,0,0,174.3,134.318V10.281A10.293,10.293,0,0,0,164.026,0Zm5.459,134.316a5.468,5.468,0,0,1-5.459,5.461H78.548a5.468,5.468,0,0,1-5.461-5.459V10.281A5.469,5.469,0,0,1,78.548,4.82h85.476a5.469,5.469,0,0,1,5.461,5.461Z" transform="translate(-68.267)" fill="#90e909"/>
        </g>
      </g>
    </g>
    <g id="Grupo_35" data-name="Grupo 35" transform="translate(77.907 19.28)">
      <g id="Grupo_34" data-name="Grupo 34">
        <path id="Caminho_22" data-name="Caminho 22" d="M186.748,68.267H104.81a2.411,2.411,0,0,0-2.41,2.41v96.4a2.411,2.411,0,0,0,2.41,2.41h81.938a2.411,2.411,0,0,0,2.41-2.41v-96.4A2.41,2.41,0,0,0,186.748,68.267Zm-2.41,96.4H107.22V73.087h77.118v91.578Z" transform="translate(-102.4 -68.267)" fill="#90e909"/>
      </g>
    </g>
    <g id="Grupo_37" data-name="Grupo 37" transform="translate(114.056 122.907)">
      <g id="Grupo_36" data-name="Grupo 36">
        <path id="Caminho_23" data-name="Caminho 23" d="M242.451,435.2h-9.64a2.411,2.411,0,0,0-2.41,2.41v9.64a2.411,2.411,0,0,0,2.41,2.41h9.64a2.411,2.411,0,0,0,2.41-2.41v-9.64A2.411,2.411,0,0,0,242.451,435.2Zm-2.41,9.64h-4.82v-4.82h4.82Z" transform="translate(-230.401 -435.2)" fill="#90e909"/>
      </g>
    </g>
    <g id="Grupo_39" data-name="Grupo 39" transform="translate(130.925 19.28)">
      <g id="Grupo_38" data-name="Grupo 38">
        <path id="Caminho_24" data-name="Caminho 24" d="M311.823,68.267h-19.28a2.411,2.411,0,0,0-2.41,2.41v36.149a2.409,2.409,0,0,0,4.114,1.7l7.936-7.936,7.936,7.936a2.409,2.409,0,0,0,4.114-1.7V70.677A2.41,2.41,0,0,0,311.823,68.267Zm-2.41,32.742-5.526-5.526a2.409,2.409,0,0,0-3.408,0l-5.526,5.526V73.087h14.46Z" transform="translate(-290.133 -68.267)" fill="#90e909"/>
      </g>
    </g>
    <g id="Grupo_41" data-name="Grupo 41" transform="translate(87.547 31.329)">
      <g id="Grupo_40" data-name="Grupo 40">
        <path id="Caminho_25" data-name="Caminho 25" d="M167.863,110.933H138.944a2.41,2.41,0,0,0,0,4.82h28.919a2.41,2.41,0,1,0,0-4.82Z" transform="translate(-136.534 -110.933)" fill="#90e909"/>
      </g>
    </g>
    <g id="Grupo_43" data-name="Grupo 43" transform="translate(87.547 55.429)">
      <g id="Grupo_42" data-name="Grupo 42">
        <path id="Caminho_26" data-name="Caminho 26" d="M172.683,196.267H138.944a2.41,2.41,0,1,0,0,4.82h33.739a2.41,2.41,0,1,0,0-4.82Z" transform="translate(-136.534 -196.267)" fill="#90e909"/>
      </g>
    </g>
    <g id="Grupo_45" data-name="Grupo 45" transform="translate(87.547 67.478)">
      <g id="Grupo_44" data-name="Grupo 44">
        <path id="Caminho_27" data-name="Caminho 27" d="M146.174,238.933h-7.23a2.41,2.41,0,0,0,0,4.82h7.23a2.41,2.41,0,1,0,0-4.82Z" transform="translate(-136.534 -238.933)" fill="#90e909"/>
      </g>
    </g>
    <g id="Grupo_47" data-name="Grupo 47" transform="translate(104.416 67.478)">
      <g id="Grupo_46" data-name="Grupo 46">
        <path id="Caminho_28" data-name="Caminho 28" d="M244.466,238.933H198.677a2.41,2.41,0,0,0,0,4.82h45.789a2.41,2.41,0,0,0,0-4.82Z" transform="translate(-196.267 -238.933)" fill="#90e909"/>
      </g>
    </g>
    <g id="Grupo_49" data-name="Grupo 49" transform="translate(142.975 79.528)">
      <g id="Grupo_48" data-name="Grupo 48">
        <path id="Caminho_29" data-name="Caminho 29" d="M342.44,281.6h-7.23a2.41,2.41,0,0,0,0,4.82h7.23a2.41,2.41,0,1,0,0-4.82Z" transform="translate(-332.8 -281.6)" fill="#90e909"/>
      </g>
    </g>
    <g id="Grupo_51" data-name="Grupo 51" transform="translate(87.547 79.528)">
      <g id="Grupo_50" data-name="Grupo 50">
        <path id="Caminho_30" data-name="Caminho 30" d="M184.733,281.6H138.944a2.41,2.41,0,1,0,0,4.82h45.789a2.41,2.41,0,1,0,0-4.82Z" transform="translate(-136.534 -281.6)" fill="#90e909"/>
      </g>
    </g>
    <g id="Grupo_53" data-name="Grupo 53" transform="translate(142.975 103.628)">
      <g id="Grupo_52" data-name="Grupo 52">
        <path id="Caminho_31" data-name="Caminho 31" d="M342.44,366.933h-7.23a2.41,2.41,0,0,0,0,4.82h7.23a2.41,2.41,0,1,0,0-4.82Z" transform="translate(-332.8 -366.933)" fill="#90e909"/>
      </g>
    </g>
    <g id="Grupo_55" data-name="Grupo 55" transform="translate(87.547 103.628)">
      <g id="Grupo_54" data-name="Grupo 54">
        <path id="Caminho_32" data-name="Caminho 32" d="M184.733,366.933H138.944a2.41,2.41,0,0,0,0,4.82h45.789a2.41,2.41,0,0,0,0-4.82Z" transform="translate(-136.534 -366.933)" fill="#90e909"/>
      </g>
    </g>
    <g id="Grupo_57" data-name="Grupo 57" transform="translate(87.547 91.578)">
      <g id="Grupo_56" data-name="Grupo 56">
        <path id="Caminho_33" data-name="Caminho 33" d="M146.174,324.267h-7.23a2.41,2.41,0,1,0,0,4.82h7.23a2.41,2.41,0,1,0,0-4.82Z" transform="translate(-136.534 -324.267)" fill="#90e909"/>
      </g>
    </g>
    <g id="Grupo_59" data-name="Grupo 59" transform="translate(104.416 91.578)">
      <g id="Grupo_58" data-name="Grupo 58">
        <path id="Caminho_34" data-name="Caminho 34" d="M244.466,324.267H198.677a2.41,2.41,0,1,0,0,4.82h45.789a2.41,2.41,0,1,0,0-4.82Z" transform="translate(-196.267 -324.267)" fill="#90e909"/>
      </g>
    </g>
    <g id="Grupo_61" data-name="Grupo 61" transform="translate(104.416 43.379)">
      <g id="Grupo_60" data-name="Grupo 60">
        <path id="Caminho_35" data-name="Caminho 35" d="M215.546,153.6h-16.87a2.41,2.41,0,1,0,0,4.82h16.87a2.41,2.41,0,0,0,0-4.82Z" transform="translate(-196.267 -153.6)" fill="#90e909"/>
      </g>
    </g>
    <g id="Grupo_63" data-name="Grupo 63" transform="translate(87.547 43.379)">
      <g id="Grupo_62" data-name="Grupo 62">
        <path id="Caminho_36" data-name="Caminho 36" d="M146.174,153.6h-7.23a2.41,2.41,0,1,0,0,4.82h7.23a2.41,2.41,0,1,0,0-4.82Z" transform="translate(-136.534 -153.6)" fill="#90e909"/>
      </g>
    </g>
    <g id="Grupo_65" data-name="Grupo 65" transform="translate(140.565 19.28)">
      <g id="Grupo_64" data-name="Grupo 64">
        <path id="Caminho_37" data-name="Caminho 37" d="M326.677,68.267a2.411,2.411,0,0,0-2.41,2.41v9.64a2.41,2.41,0,1,0,4.82,0v-9.64A2.411,2.411,0,0,0,326.677,68.267Z" transform="translate(-324.267 -68.267)" fill="#90e909"/>
      </g>
    </g>
  </g>
</svg>
