<svg xmlns="http://www.w3.org/2000/svg" width="153.947" height="130.247" viewBox="0 0 153.947 130.247">
  <path id="telegram" d="M151.569,3.566A9.995,9.995,0,0,0,143.638,0,15.558,15.558,0,0,0,138.1,1.1L7.79,50.846C.874,53.485-.057,57.446,0,59.571S1.217,65.6,8.271,67.844l.127.038,27.03,7.735,14.618,41.8c1.993,5.7,6.467,9.239,11.677,9.239a13.818,13.818,0,0,0,9.344-3.979l16.719-15.394,24.25,19.526.008.006.23.186.065.051a14,14,0,0,0,8.512,3.2h0c5.615,0,10.087-4.157,11.389-10.588l21.352-105.43c.857-4.232.139-8.018-2.025-10.663ZM44.471,74.147l52.15-26.642L64.149,82.01a4.5,4.5,0,0,0-1.095,2.01l-6.261,25.363Zm20.486,41.894c-.216.2-.433.376-.651.539l5.809-23.528,10.567,8.509Zm79.8-103.6L123.4,117.869c-.206,1.009-.862,3.357-2.55,3.357a5.256,5.256,0,0,1-2.954-1.28L90.419,97.82a.052.052,0,0,0-.013-.009L74.056,84.644l46.959-49.9a4.51,4.51,0,0,0-5.336-7.107L38.445,67.1l-27.4-7.839L141.32,9.529a6.615,6.615,0,0,1,2.318-.509c.276,0,.767.033.949.257.24.292.545,1.29.167,3.161Zm0,0" transform="translate(0)" fill="#90e909"/>
</svg>
