<svg xmlns="http://www.w3.org/2000/svg" width="27.806" height="22.597" viewBox="0 0 27.806 22.597">
  <path id="Twitter_Icon" data-name="Twitter Icon" d="M31.38,13a11.351,11.351,0,0,1-3.277.9,5.715,5.715,0,0,0,2.508-3.156,11.419,11.419,0,0,1-3.623,1.385,5.709,5.709,0,0,0-9.72,5.2A16.2,16.2,0,0,1,5.51,11.37a5.712,5.712,0,0,0,1.766,7.616,5.688,5.688,0,0,1-2.584-.714c0,.024,0,.048,0,.072a5.709,5.709,0,0,0,4.576,5.594,5.736,5.736,0,0,1-1.5.2,5.652,5.652,0,0,1-1.074-.1A5.711,5.711,0,0,0,12.02,28a11.511,11.511,0,0,1-8.446,2.362,16.143,16.143,0,0,0,8.745,2.563c10.493,0,16.231-8.692,16.231-16.231q0-.371-.016-.739A11.554,11.554,0,0,0,31.38,13Z" transform="translate(-3.574 -10.326)" fill="#fff"/>
</svg>
