<svg xmlns="http://www.w3.org/2000/svg" width="117.743" height="117.758" viewBox="0 0 117.743 117.758">
  <g id="user-experience" transform="translate(-0.5 -0.002)">
    <path id="Caminho_8" data-name="Caminho 8" d="M110.3,58.9a81.856,81.856,0,0,0,5.782-14.8c4.245-15.331,2.189-28.168-5.789-36.146S89.478-2.084,74.148,2.161a81.922,81.922,0,0,0-14.8,5.782A78.51,78.51,0,0,0,41.12,1.3C27.348-1.716,15.739.645,8.434,7.951,3.745,12.64,1.026,19.228.571,27,.162,34,1.58,42.026,4.67,50.3a10.924,10.924,0,0,0,0,17.171C1.58,75.735.162,83.764.571,90.758c.456,7.776,3.174,14.364,7.863,19.053,5.236,5.237,12.582,7.937,21.456,7.937a48.267,48.267,0,0,0,5.526-.328,72.532,72.532,0,0,0,23.945-7.6A81.881,81.881,0,0,0,74.147,115.6a55.342,55.342,0,0,0,14.693,2.16c8.813,0,16.191-2.686,21.454-7.949,7.306-7.305,9.667-18.914,6.648-32.687A78.519,78.519,0,0,0,110.3,58.9ZM75.069,5.492c14.079-3.9,25.721-2.157,32.781,4.9s8.8,18.7,4.9,32.781A76.633,76.633,0,0,1,108.3,55.112a113.145,113.145,0,0,0-12.215-17.6,10.928,10.928,0,0,0,.031-13.456l-2.728,2.121a7.412,7.412,0,0,1,1.573,4.593,7.483,7.483,0,1,1-3.667-6.442l1.766-2.97a10.926,10.926,0,0,0-12.327.8,113.265,113.265,0,0,0-17.6-12.216A76.719,76.719,0,0,1,75.069,5.492Zm-64.192,4.9C20.22,1.052,37.351,1.4,55.58,9.937a117.718,117.718,0,0,0-25.59,19.57A120.953,120.953,0,0,0,14.524,48.375a11.037,11.037,0,0,0-3.081-.438,10.913,10.913,0,0,0-3.724.653c-5.987-16.318-4.866-30.173,3.158-38.2ZM29.98,114.28c-7.817,0-14.463-2.273-19.1-6.912-8.023-8.023-9.145-21.877-3.157-38.2a10.918,10.918,0,0,0,6.8.209,120.878,120.878,0,0,0,15.47,18.873A117.734,117.734,0,0,0,55.572,107.82c-9.138,4.277-17.929,6.461-25.592,6.46Zm29.374-8.34A112.857,112.857,0,0,1,32.434,85.81,117.639,117.639,0,0,1,17.669,67.874a10.937,10.937,0,0,0,4.718-8.992c0-.324-.013-.652-.042-.975l-3.443.3c.02.221.03.446.03.669a7.481,7.481,0,1,1-.79-3.352L21.23,53.98a10.955,10.955,0,0,0-3.554-4.1A117.7,117.7,0,0,1,32.434,31.952,112.827,112.827,0,0,1,59.362,11.818,108.372,108.372,0,0,1,78.374,24.7,10.937,10.937,0,0,0,93.547,39.869a108.4,108.4,0,0,1,12.879,19.012A112.867,112.867,0,0,1,86.293,85.81c-.921.92-1.867,1.835-2.823,2.73A10.93,10.93,0,0,0,69.7,88.252L71.82,90.98a7.419,7.419,0,0,1,4.592-1.573,7.484,7.484,0,1,1-6.442,3.668L67,91.308a10.934,10.934,0,0,0-.4,10.417q-3.632,2.318-7.242,4.215Zm48.5,1.428c-7.06,7.061-18.7,8.8-32.781,4.9a76.7,76.7,0,0,1-11.928-4.453q2.73-1.526,5.457-3.271a10.937,10.937,0,0,0,17.13-13.386c1.019-.953,2.027-1.927,3.007-2.907a117.746,117.746,0,0,0,19.571-25.591c8.537,18.23,8.885,35.361-.457,44.7Zm0,0" transform="translate(0 0)" fill="#fff"/>
    <path id="Caminho_9" data-name="Caminho 9" d="M271.657,275.426h-3.57v-8.707a8.673,8.673,0,0,0-6.294-8.316l-1.292-.364-.938,3.326,1.292.365a5.2,5.2,0,0,1,3.776,4.989v8.707H258.41V270.7h-3.455v4.723H239.4v3.455h32.254Zm0,0" transform="translate(-183.956 -198.689)" fill="#fff"/>
    <path id="Caminho_10" data-name="Caminho 10" d="M167.279,142.285l7.2,2.032.939-3.327L168.36,139V134.41a12.093,12.093,0,0,0,5.3-10v-5.069a12.1,12.1,0,0,0-24.191,0v5.069a12.093,12.093,0,0,0,5.3,10V139l-11.676,3.293a8.672,8.672,0,0,0-6.294,8.316v8.707h-3.57v3.455h20.965v-3.455h-4.262v-4.723h-3.455v4.723h-6.221v-8.707a5.2,5.2,0,0,1,3.776-4.989l11.82-3.333a7.75,7.75,0,0,0,11.43,0ZM161.564,110.7a8.65,8.65,0,0,1,8.639,8.64v1.924l-3.632-4.8H153.419A8.653,8.653,0,0,1,161.564,110.7Zm-8.639,13.708v-4.492h11.927l5.065,6.7a8.639,8.639,0,0,1-16.992-2.207Zm5.3,15.339v-3.717a12.02,12.02,0,0,0,6.681,0v3.717a4.3,4.3,0,0,1-6.681,0Zm0,0" transform="translate(-102.2 -82.578)" fill="#fff"/>
    <path id="Caminho_11" data-name="Caminho 11" d="M279.817,279.265l-4.868-1.373.939-3.326,4.867,1.373Zm0,0" transform="translate(-211.326 -211.415)" fill="#fff"/>
    <path id="Caminho_12" data-name="Caminho 12" d="M314.82,285.524l-.939,3.326-3.326-.938.939-3.326Zm0,0" transform="translate(-238.743 -219.13)" fill="#fff"/>
    <path id="Caminho_13" data-name="Caminho 13" d="M371.129,126.281h3.455v3.456h-3.455Zm0,0" transform="translate(-285.385 -97.235)" fill="#fff"/>
    <path id="Caminho_14" data-name="Caminho 14" d="M323.047,413.77H326.5v3.455h-3.455Zm0,0" transform="translate(-248.362 -318.603)" fill="#fff"/>
    <path id="Caminho_15" data-name="Caminho 15" d="M40.566,248.488h3.456v3.455H40.566Zm0,0" transform="translate(-30.851 -191.335)" fill="#fff"/>
  </g>
</svg>
